<!-- Generated by IcoMoon.io -->
<svg version="1.1" xmlns="http://www.w3.org/2000/svg" width="32" height="32" viewBox="0 0 32 32">
<title>heroicons-solid_menu-1</title>
<path d="M4.8 8v0c0 0.884 0.716 1.6 1.6 1.6h19.2c0.884 0 1.6-0.716 1.6-1.6s-0.716-1.6-1.6-1.6h-19.2c-0.884 0-1.6 0.716-1.6 1.6zM4.8 16v0c0 0.884 0.716 1.6 1.6 1.6h19.2c0.884 0 1.6-0.716 1.6-1.6s-0.716-1.6-1.6-1.6h-19.2c-0.884 0-1.6 0.716-1.6 1.6zM4.8 24v0c0 0.884 0.716 1.6 1.6 1.6h19.2c0.884 0 1.6-0.716 1.6-1.6s-0.716-1.6-1.6-1.6h-19.2c-0.884 0-1.6 0.716-1.6 1.6z"></path>
</svg>
